<svg width="1200" height="760" viewBox="0 0 1200 760" fill="none" xmlns="http://www.w3.org/2000/svg">
  <rect width="1200" height="760" rx="40" fill="#ECE8F3"/>
  <rect x="44" y="46" width="1112" height="668" rx="32" fill="#FBFAFE"/>
  <rect x="88" y="104" width="320" height="552" rx="28" fill="#F0E9DB"/>
  <rect x="436" y="104" width="640" height="552" rx="28" fill="#131C22"/>
  <rect x="120" y="142" width="256" height="160" rx="22" fill="#FFFFFF"/>
  <rect x="120" y="330" width="256" height="22" rx="11" fill="#C9B79D"/>
  <rect x="120" y="370" width="208" height="22" rx="11" fill="#C9B79D"/>
  <rect x="120" y="434" width="256" height="166" rx="22" fill="#FFFFFF"/>
  <rect x="480" y="148" width="188" height="34" rx="17" fill="#C66D4D"/>
  <rect x="710" y="148" width="216" height="34" rx="17" fill="#2A3943"/>
  <rect x="482" y="222" width="440" height="114" rx="24" fill="#1E2930"/>
  <rect x="482" y="364" width="340" height="90" rx="24" fill="#F4EEE3"/>
  <rect x="872" y="364" width="170" height="90" rx="24" fill="#2A3943"/>
  <rect x="482" y="500" width="560" height="108" rx="24" fill="#1E2930"/>
  <path d="M562 264H842" stroke="#F4EEE3" stroke-width="20" stroke-linecap="round"/>
  <path d="M532 560H992" stroke="#F4EEE3" stroke-width="18" stroke-linecap="round"/>
  <text x="88" y="72" fill="#131C22" font-family="Arial, sans-serif" font-size="42" font-weight="700">Upload a PDF, retrieve context, and chat with the document</text>
</svg>
