<svg width="1200" height="760" viewBox="0 0 1200 760" fill="none" xmlns="http://www.w3.org/2000/svg">
  <rect width="1200" height="760" rx="40" fill="#F5E9DA"/>
  <rect x="42" y="46" width="1116" height="668" rx="32" fill="#FFF8F0"/>
  <rect x="86" y="98" width="1028" height="76" rx="22" fill="#1E2A28"/>
  <circle cx="132" cy="136" r="12" fill="#D98A61"/>
  <circle cx="170" cy="136" r="12" fill="#E8BC8D"/>
  <circle cx="208" cy="136" r="12" fill="#93A7A1"/>
  <rect x="846" y="118" width="220" height="36" rx="18" fill="#A6482D"/>
  <rect x="100" y="220" width="500" height="384" rx="28" fill="#EFE3D2"/>
  <rect x="128" y="254" width="444" height="184" rx="24" fill="#C66D4D"/>
  <rect x="128" y="460" width="140" height="116" rx="20" fill="#F8F2E8"/>
  <rect x="282" y="460" width="140" height="116" rx="20" fill="#F8F2E8"/>
  <rect x="436" y="460" width="136" height="116" rx="20" fill="#F8F2E8"/>
  <rect x="638" y="220" width="430" height="250" rx="28" fill="#1E2A28"/>
  <rect x="674" y="260" width="220" height="28" rx="14" fill="#F5E9DA"/>
  <rect x="674" y="308" width="340" height="18" rx="9" fill="#71827D"/>
  <rect x="674" y="340" width="312" height="18" rx="9" fill="#71827D"/>
  <rect x="674" y="390" width="180" height="50" rx="18" fill="#A6482D"/>
  <rect x="638" y="500" width="430" height="104" rx="28" fill="#E7D6C0"/>
  <text x="98" y="664" fill="#1E2A28" font-family="Arial, sans-serif" font-size="42" font-weight="700">Online ordering, checkout, and cloud deployment</text>
</svg>
