<svg width="1200" height="760" viewBox="0 0 1200 760" fill="none" xmlns="http://www.w3.org/2000/svg">
  <rect width="1200" height="760" rx="40" fill="#E9EFE8"/>
  <rect x="44" y="46" width="1112" height="668" rx="32" fill="#FBFDF9"/>
  <rect x="82" y="88" width="292" height="584" rx="28" fill="#172423"/>
  <rect x="410" y="88" width="322" height="278" rx="28" fill="#F2E8D6"/>
  <rect x="770" y="88" width="348" height="278" rx="28" fill="#DDE7E3"/>
  <rect x="410" y="394" width="708" height="278" rx="28" fill="#F7F4ED"/>
  <circle cx="154" cy="162" r="34" fill="#A6482D"/>
  <rect x="208" y="138" width="116" height="18" rx="9" fill="#F7F4ED"/>
  <rect x="208" y="168" width="86" height="14" rx="7" fill="#8EA29B"/>
  <rect x="118" y="238" width="220" height="110" rx="22" fill="#223432"/>
  <rect x="118" y="368" width="220" height="110" rx="22" fill="#223432"/>
  <rect x="118" y="498" width="220" height="110" rx="22" fill="#223432"/>
  <path d="M466 134H674C690.569 134 704 147.431 704 164V290C704 306.569 690.569 320 674 320H466C449.431 320 436 306.569 436 290V164C436 147.431 449.431 134 466 134Z" fill="#C96E4E"/>
  <circle cx="944" cy="184" r="64" fill="#A6482D"/>
  <circle cx="920" cy="184" r="10" fill="#FBFDF9"/>
  <circle cx="968" cy="184" r="10" fill="#FBFDF9"/>
  <path d="M912 220C928 236 960 236 976 220" stroke="#FBFDF9" stroke-width="10" stroke-linecap="round"/>
  <rect x="456" y="430" width="214" height="18" rx="9" fill="#172423"/>
  <rect x="456" y="464" width="616" height="18" rx="9" fill="#90A49D"/>
  <rect x="456" y="500" width="570" height="18" rx="9" fill="#90A49D"/>
  <rect x="456" y="556" width="180" height="48" rx="18" fill="#A6482D"/>
  <text x="82" y="58" fill="#172423" font-family="Arial, sans-serif" font-size="42" font-weight="700">AI-assisted social feed, image generation, and search</text>
</svg>
