<svg width="1200" height="760" viewBox="0 0 1200 760" fill="none" xmlns="http://www.w3.org/2000/svg">
  <rect width="1200" height="760" rx="40" fill="#E9F0EE"/>
  <rect x="44" y="46" width="1112" height="668" rx="32" fill="#FBFEFC"/>
  <rect x="88" y="112" width="688" height="420" rx="30" fill="#172423"/>
  <rect x="816" y="112" width="288" height="420" rx="30" fill="#F2E8D8"/>
  <rect x="132" y="166" width="598" height="34" rx="17" fill="#F7F3EB"/>
  <rect x="132" y="226" width="484" height="24" rx="12" fill="#79928A"/>
  <rect x="132" y="272" width="420" height="24" rx="12" fill="#79928A"/>
  <rect x="132" y="330" width="220" height="120" rx="24" fill="#243935"/>
  <rect x="376" y="330" width="220" height="120" rx="24" fill="#243935"/>
  <rect x="850" y="154" width="220" height="88" rx="24" fill="#FFFFFF"/>
  <rect x="850" y="270" width="220" height="88" rx="24" fill="#FFFFFF"/>
  <rect x="850" y="386" width="220" height="88" rx="24" fill="#FFFFFF"/>
  <rect x="88" y="568" width="1016" height="92" rx="28" fill="#DCE7E4"/>
  <text x="118" y="624" fill="#172423" font-family="Arial, sans-serif" font-size="40" font-weight="700">Studios, debugging support, and hands-on guidance across Java, C++, and core CS foundations</text>
</svg>
